<?xml version="1.0" encoding="utf-8"?>
<!-- Generator: Adobe Illustrator 22.1.0, SVG Export Plug-In . SVG Version: 6.00 Build 0) -->
<svg
	version="1.1"
	id="svg2"
	inkscape:version="0.92.3 (3ce5693, 2018-03-11)"
	sodipodi:docname="page01.svg"
	xmlns:cc="http://creativecommons.org/ns#"
	xmlns:dc="http://purl.org/dc/elements/1.1/"
	xmlns:inkscape="http://www.inkscape.org/namespaces/inkscape"
	xmlns:rdf="http://www.w3.org/1999/02/22-rdf-syntax-ns#"
	xmlns:sodipodi="http://sodipodi.sourceforge.net/DTD/sodipodi-0.dtd"
	xmlns:svg="http://www.w3.org/2000/svg"
	xmlns="http://www.w3.org/2000/svg"
	xmlns:xlink="http://www.w3.org/1999/xlink"
	x="0px"
	y="0px"
	viewBox="0 0 506.2 377.9"
	style="enable-background:new 0 0 506.2 377.9;"
	xml:space="preserve">
	<style type="text/css">
		.st0 {
			fill: #FFFFFF;
			fill-opacity: 0.502;
		}
	</style>
	<sodipodi:namedview
		bordercolor="#666666"
		borderopacity="1"
		gridtolerance="10"
		guidetolerance="10"
		id="namedview4"
		inkscape:current-layer="svg2"
		inkscape:cx="246.23556"
		inkscape:cy="208.65344"
		inkscape:pageopacity="0"
		inkscape:pageshadow="2"
		inkscape:window-height="1012"
		inkscape:window-maximized="1"
		inkscape:window-width="1920"
		inkscape:window-x="1050"
		inkscape:window-y="32"
		inkscape:zoom="1.6090926"
		objecttolerance="10"
		pagecolor="#ffffff"
		showgrid="false"></sodipodi:namedview>
<image style="overflow:visible;" width="1580" height="1184" id="image_10" xlink:href="../../../YandexDisk/Скриншоты/2018-06-25_22-00-22.png" transform="matrix(0.3204 0 0 0.3204 0 9.842499e-06)"></image>
<a id="a838" xlink:href="/presentation/18.html">
	<circle id="path836" class="st0" cx="101.4" cy="191.4" r="58.7"/>
</a>
<a id="a838-3" xlink:href="/presentation/04.html" transform="translate(294.26523,-148.84165)">
	<circle id="path836-6" class="st0" cx="102.4" cy="191.4" r="58.7"/>
</a>
<a id="a838-3-7" xlink:href="/presentation/08.html" transform="matrix(0.6031746,0,0,0.6031746,91.410094,-68.758979)">

	<ellipse id="path836-6-5" transform="matrix(7.088902e-02 -0.9975 0.9975 7.088902e-02 -98.6754 278.8863)" class="st0" cx="100.4" cy="192.4" rx="35.4" ry="35.4"/>
</a>
<a id="a838-3-3" xlink:href="/presentation/16.html" transform="matrix(0.68189777,0,0,0.68189777,-43.433829,162.16073)">

	<ellipse id="path836-6-56" transform="matrix(7.088901e-02 -0.9975 0.9975 7.088901e-02 -90.9013 298.9646)" class="st0" cx="115" cy="198.3" rx="40" ry="40"/>
</a>
<a id="a838-3-2" xlink:href="/presentation/29.html" transform="matrix(0.45767195,0,0,0.45767195,63.494253,231.81743)">
	<circle id="path836-6-9" class="st0" cx="102.6" cy="183.7" r="58.7"/>
</a>
<a id="a838-3-1" xlink:href="/presentation/12.html" transform="matrix(0.59523809,0,0,0.59523809,400.46434,201.4605)">

	<ellipse id="path836-6-2" transform="matrix(7.088903e-02 -0.9975 0.9975 7.088903e-02 -95.5536 282.2365)" class="st0" cx="103.7" cy="192.4" rx="36" ry="36"/>
</a>
<a id="a838-3-70" xlink:href="/presentation/20.html" transform="matrix(0.6005291,0,0,0.6005291,418.7233,-6.7245939)">

	<ellipse id="path836-6-93" transform="matrix(7.088903e-02 -0.9975 0.9975 7.088903e-02 -97.0145 277.3394)" class="st0" cx="100.4" cy="190.7" rx="35.3" ry="35.3"/>
</a>
<a id="a838-3-70-6" xlink:href="/presentation/06.html" transform="translate(312.44318,15.381343)">
	<circle id="path836-6-93-0" class="st0" cx="88" cy="181" r="45.3"/>
</a>
<a id="a838-3-70-62" xlink:href="/presentation/02.html" transform="matrix(1.1640211,0,0,1.1640211,-77.210857,-184.44079)">
	<circle id="path836-6-93-6" class="st0" cx="101.2" cy="191.6" r="58.7"/>
</a>
<a id="a4650" xlink:href="/presentation/14.html">
	<pat id="path4648" inkscape:connector-curvature="0">
			class="st0"
			d="M174,382.3l11.8-40.4l-23-19.9v-28l9.3-21.8l-9.9-16.2v-26.7
		l19.3-25.5l24.2-5.6l19.9-9.9l4.4-13.7l-16.2-1.9l-8.1-14.3l0.6-28.6l8.1-5l3.1-22.4l23-16.2l32.9-0.6l24.2,15.5l13.1,34.2
		l0.6,29.8l-23.6,21.1l50.3,23.6l18.6,26.7l-5,32.3l-5.6,5.6l6.8,31.1l-1.2,19.9l-9.3,8.1l-28.6,5.6l3.1,43.5L174,382.3z"/>
	</a>
</svg>
